<svg width="27" height="26" viewBox="0 0 27 26" fill="none" xmlns="http://www.w3.org/2000/svg">
<g id="Icon/list">
<path id="Vector" d="M15.3055 3.97217H8.08333C7.60446 3.97217 7.14521 4.1624 6.80661 4.501C6.468 4.83961 6.27777 5.29886 6.27777 5.77772V20.2222C6.27777 20.701 6.468 21.1603 6.80661 21.4989C7.14521 21.8375 7.60446 22.0277 8.08333 22.0277H18.9167C19.3955 22.0277 19.8548 21.8375 20.1934 21.4989C20.532 21.1603 20.7222 20.701 20.7222 20.2222V9.38883L15.3055 3.97217Z" stroke="#999999" stroke-width="1.6" stroke-linecap="round" stroke-linejoin="round"/>
<path id="Vector_2" d="M15.3055 3.97217V9.38884H20.7222" stroke="#999999" stroke-width="1.6" stroke-linecap="round" stroke-linejoin="round"/>
<path id="Vector_3" d="M17.1111 13.9028H9.88889" stroke="#999999" stroke-width="1.6" stroke-linecap="round" stroke-linejoin="round"/>
<path id="Vector_4" d="M17.1111 17.5139H9.88889" stroke="#999999" stroke-width="1.6" stroke-linecap="round" stroke-linejoin="round"/>
<path id="Vector_5" d="M11.6944 10.2917H10.7917H9.88889" stroke="#999999" stroke-width="1.6" stroke-linecap="round" stroke-linejoin="round"/>
</g>
</svg>
