<svg width="24" height="24" viewBox="0 0 24 24" fill="none" xmlns="http://www.w3.org/2000/svg">
<path fill-rule="evenodd" clip-rule="evenodd" d="M5.6752 12.0972C5.6752 8.55028 8.55052 5.67495 12.0974 5.67495C15.6443 5.67495 18.5196 8.55028 18.5196 12.0972C18.5196 13.8303 17.8331 15.4031 16.7171 16.5585C16.6876 16.5807 16.6593 16.6053 16.6324 16.6322C16.6055 16.6591 16.581 16.6874 16.5587 16.7169C15.4034 17.8329 13.8306 18.5194 12.0974 18.5194C8.55052 18.5194 5.6752 15.6441 5.6752 12.0972ZM17.1762 18.3073C15.793 19.4399 14.0246 20.1194 12.0974 20.1194C7.66687 20.1194 4.0752 16.5277 4.0752 12.0972C4.0752 7.66662 7.66687 4.07495 12.0974 4.07495C16.528 4.07495 20.1196 7.66662 20.1196 12.0972C20.1196 14.0243 19.4401 15.7928 18.3076 17.176L21.6909 20.5593C22.0033 20.8717 22.0033 21.3782 21.6909 21.6906C21.3785 22.0031 20.8719 22.0031 20.5595 21.6906L17.1762 18.3073Z" fill="#B0B0B0"/>
</svg>
